<?xml version="1.0" encoding="UTF-8" standalone="no"?>
<!-- Created with Inkscape (http://www.inkscape.org/) -->

<svg
   width="150mm"
   height="25mm"
   viewBox="0 0 150 25"
   version="1.1"
   id="svg7030"
   inkscape:version="1.1.2 (0a00cf5339, 2022-02-04)"
   sodipodi:docname="logo.svg"
   xmlns:inkscape="http://www.inkscape.org/namespaces/inkscape"
   xmlns:sodipodi="http://sodipodi.sourceforge.net/DTD/sodipodi-0.dtd"
   xmlns="http://www.w3.org/2000/svg"
   xmlns:svg="http://www.w3.org/2000/svg">
  <sodipodi:namedview
     id="namedview7032"
     pagecolor="#000000"
     bordercolor="#666666"
     borderopacity="1.0"
     inkscape:pageshadow="2"
     inkscape:pageopacity="0"
     inkscape:pagecheckerboard="0"
     inkscape:document-units="mm"
     showgrid="false"
     inkscape:zoom="1.7470279"
     inkscape:cx="280.47634"
     inkscape:cy="24.040829"
     inkscape:window-width="1920"
     inkscape:window-height="1011"
     inkscape:window-x="0"
     inkscape:window-y="32"
     inkscape:window-maximized="1"
     inkscape:current-layer="layer1" />
  <defs
     id="defs7027" />
  <g
     inkscape:label="Layer 1"
     inkscape:groupmode="layer"
     id="layer1">
    <path
       id="path1336"
       style="color:#000000;fill:#ffffff;fill-opacity:1;stroke-width:0.999998;stroke-linecap:square;-inkscape-stroke:none"
       d="m 63.919114,0.8044585 v 1.113635 h 1.113629 7.776226 c 4.475188,0 8.251474,3.559002 8.251438,8.004715 0,2.6356985 -1.322758,4.9529195 -3.338976,6.4110665 l -0.431052,0.312007 3.558826,5.409756 h -3.595307 v 1.117473 h 5.664165 L 78.7381,16.823487 c 2.036835,-1.663646 3.435942,-4.088903 3.435942,-6.9006785 3.9e-5,-5.076138 -4.297807,-9.11835 -9.365073,-9.11835 z m -44.37057,1.332521 v 2.786959 15.6820565 2.786962 h 5.573921 v -2.786962 -5.054544 h 5.856171 v 5.054544 2.786962 h 5.57296 V 20.605995 4.9239385 2.1369795 h -5.57296 v 2.786959 5.05455 h -5.856171 v -5.05455 -2.786959 z m 23.003226,0 c -2.091433,0 -3.774825,1.684355 -3.774831,3.775789 V 19.477964 c 6e-6,2.091433 1.683398,3.774832 3.774831,3.774832 h 13.566155 c 2.091433,0 3.774831,-1.683398 3.774831,-3.774831 V 5.9127685 c 0,-2.091434 -1.683398,-3.775789 -3.774831,-3.775789 z m -29.541015,9.63e-4 c -3.7927068,0 -7.305496,2.02726 -9.2018681,5.311834 -1.896372,3.2845835 -1.896353,7.3429125 0,10.6275065 1.8963533,3.284593 5.4091428,5.315674 9.2018681,5.315674 h 1.367079 2.786961 v -5.572963 h -2.786961 -1.367079 c -1.810488,0 -3.4715341,-0.960783 -4.3767684,-2.528712 -0.9052528,-1.567941 -0.9052528,-3.486615 0,-5.054544 C 9.5392394,8.6687865 11.200249,7.7109035 13.010755,7.7109035 h 1.367079 2.786961 v -5.572961 h -2.786961 z m 70.903815,0 V 23.392957 h 6.451388 c 3.792727,0 7.308396,-2.031081 9.204751,-5.315674 1.896371,-3.284594 1.896371,-7.342923 0,-10.6275065 -1.896374,-3.284574 -5.412045,-5.311834 -9.204751,-5.311834 z m 19.02391,0 v 2.785996 15.6820565 2.786962 h 5.57297 V 20.605995 4.9239385 2.1379425 Z m 8.00087,0 v 18.4680535 2.786961 h 5.57296 v -2.786961 -8.083434 l 7.68119,10.870395 h 5.06222 V 4.9239385 2.1379425 h -5.57392 v 2.785996 8.0843985 L 115.99677,2.1379425 Z m 31.0713,0 c -3.7927,-1e-5 -7.30933,2.027251 -9.2057,5.311834 -1.89636,3.2845895 -1.89636,7.3429175 0,10.6275065 1.89637,3.284593 5.413,5.315677 9.2057,5.315674 h 5.60273 V 13.44419 h -5.57392 v 4.375804 h -0.0288 c -1.8105,5e-6 -3.4744,-0.961731 -4.37964,-2.52967 -0.90525,-1.567945 -0.90525,-3.485647 0,-5.053586 0.90524,-1.5679425 2.56915,-2.5258375 4.37964,-2.5258345 h 5.25423 V 2.1379425 Z M 61.478721,2.9395665 V 5.7265255 24.195542 H 73.53955 76.326509 V 18.621617 H 73.53955 67.051681 V 5.7265255 2.9395665 Z M 45.713883,3.9410942 h 7.240901 c 2.064517,0 3.727539,1.661992 3.727539,3.7265095 V 13.91278 c 0,2.064516 -1.663022,3.726509 -3.727539,3.726509 h -7.240901 c -2.064517,0 -3.72651,-1.661993 -3.72651,-3.726509 V 7.6676037 c 0,-2.0645175 1.661993,-3.7265095 3.72651,-3.7265095 z m 23.779151,2.4324883 v 0.558736 6.5349085 h 3.315935 c 2.153003,0 3.792112,-1.614519 3.792112,-3.5444185 1.9e-5,-1.929902 -1.638539,-3.549226 -3.792112,-3.549226 z m 1.11363,1.117473 h 2.202305 c 1.612978,0 2.677535,1.122684 2.67752,2.431753 0,1.3090885 -1.063971,2.4307895 -2.67752,2.4307895 h -2.202305 z m 18.880868,0.219848 h 0.878426 c 1.810508,0 3.470556,0.957883 4.375809,2.5258335 0.905253,1.567929 0.905253,3.485646 0,5.053586 -0.905234,1.567925 -2.565322,2.529671 -4.375809,2.529671 h -0.878426 z"
       sodipodi:nodetypes="cccscccccccccsccccccccccccccccccccccsccssssssscssccccsccsccccsccsssscccccccccccccccccccccccccssssccccssssccscccccccccccssssssssscccscsccssscccsssscc" />
  </g>
</svg>
