<?xml version="1.0" encoding="UTF-8" standalone="no"?>
<!-- Created with Inkscape (http://www.inkscape.org/) -->

<svg
   width="150mm"
   height="25mm"
   viewBox="0 0 150 25"
   version="1.1"
   id="svg7030"
   inkscape:version="1.1.2 (0a00cf5339, 2022-02-04)"
   sodipodi:docname="logo.svg"
   xmlns:inkscape="http://www.inkscape.org/namespaces/inkscape"
   xmlns:sodipodi="http://sodipodi.sourceforge.net/DTD/sodipodi-0.dtd"
   xmlns="http://www.w3.org/2000/svg"
   xmlns:svg="http://www.w3.org/2000/svg">
  <sodipodi:namedview
     id="namedview7032"
     pagecolor="#000000"
     bordercolor="#666666"
     borderopacity="1.0"
     inkscape:pageshadow="2"
     inkscape:pageopacity="0"
     inkscape:pagecheckerboard="0"
     inkscape:document-units="mm"
     showgrid="false"
     inkscape:zoom="2.1456029"
     inkscape:cx="312.26654"
     inkscape:cy="45.674807"
     inkscape:window-width="1920"
     inkscape:window-height="1011"
     inkscape:window-x="0"
     inkscape:window-y="32"
     inkscape:window-maximized="1"
     inkscape:current-layer="layer1" />
  <defs
     id="defs7027" />
  <g
     inkscape:label="Layer 1"
     inkscape:groupmode="layer"
     id="layer1">
    <path
       id="path5207"
       style="color:#000000;fill:#ffffff;fill-opacity:1;stroke-width:0.999998;stroke-linecap:square;-inkscape-stroke:none"
       d="M 64.212871,0.54000675 V 1.6536338 h 1.113628 7.776268 c 4.475189,0 8.251214,3.5589663 8.251177,8.0046794 0,2.6356998 -1.322597,4.9528308 -3.338814,6.4109778 l -0.430983,0.312126 3.558956,5.409488 h -3.595645 v 1.117762 h 5.664253 l -4.179589,-6.35 c 2.036834,-1.663646 3.435448,-4.088576 3.435448,-6.9003539 4e-5,-5.0761378 -4.297535,-9.11830635 -9.364803,-9.11830635 z M 18.52057,2.1802167 v 2.7869099 15.6822464 2.78691 h 5.57382 v -2.78691 -5.054472 h 5.855974 v 5.054472 2.78691 H 35.52315 V 20.649373 4.9671266 2.1802167 H 29.950364 V 4.9671266 10.022115 H 24.09439 V 4.9671266 2.1802167 Z m 23.079729,0 c -2.091434,0 -3.774956,1.6845631 -3.774964,3.7759967 V 19.521277 c 8e-6,2.091433 1.68353,3.774963 3.774964,3.774963 h 13.566097 c 2.091431,0 3.774961,-1.68353 3.774961,-3.774963 V 5.9562134 c 0,-2.0914335 -1.68353,-3.7759966 -3.774961,-3.7759966 z m -29.536182,0.00103 c -3.7927068,0 -7.3051334,2.0272464 -9.2015054,5.3118204 -1.89637194,3.2845839 -1.89635294,7.3431809 0,10.6277739 1.8963533,3.284593 5.40878,5.315438 9.2015054,5.315438 h 1.367358 2.78691 v -5.572786 h -2.78691 -1.367358 c -1.810488,0 -3.4712426,-0.961116 -4.3764769,-2.529045 -0.9052528,-1.56794 -0.9052528,-3.486543 0,-5.054472 C 8.5928929,8.7120291 10.253611,7.7545533 12.064117,7.7545533 h 1.367358 2.78691 V 2.1812502 h -2.78691 z m 73.449781,0 V 23.436279 h 6.451285 c 3.792725,0 7.308249,-2.030845 9.204607,-5.315438 1.89637,-3.284594 1.89637,-7.343191 0,-10.6277738 -1.896379,-3.2845706 -5.411903,-5.311817 -9.204607,-5.311817 z m 18.850532,0 v 2.7858764 15.6822459 2.78691 h 5.5733 V 20.649373 4.9671266 2.1812502 Z m 7.87497,0 v 18.4681223 2.78691 h 5.5733 v -2.78691 -8.083227 l 7.68118,10.870137 h 5.06223 V 4.9671266 2.1812502 h -5.57382 V 4.9671266 13.051904 L 117.29697,2.1812502 Z m 30.7175,0 c -3.7927,-1e-5 -7.30927,2.0272374 -9.20564,5.3118204 -1.89636,3.2845899 -1.89636,7.3431849 0,10.6277739 1.89637,3.284593 5.41294,5.315441 9.20564,5.315438 h 5.60276 v -9.948743 h -5.57382 v 4.375961 h -0.0289 c -1.8105,5e-6 -3.47434,-0.961623 -4.37958,-2.529562 -0.90525,-1.567945 -0.90525,-3.486016 0,-5.053955 0.90524,-1.5679419 2.56909,-2.5254295 4.37958,-2.5254266 h 5.25394 V 2.1812502 Z M 61.243544,3.2039266 V 5.9913535 24.459993 h 12.060762 2.786909 v -5.57382 H 73.304306 66.816331 V 5.9913535 3.2039266 Z M 44.762379,3.9842408 h 7.240902 c 2.064518,0 3.727421,1.6623869 3.727421,3.7269045 v 6.2450967 c 0,2.064516 -1.662903,3.726387 -3.727421,3.726387 h -7.240902 c -2.064517,0 -3.726386,-1.661871 -3.726386,-3.726387 V 7.7111452 c 0,-2.0645175 1.661869,-3.7269044 3.726386,-3.7269044 z m 25.024312,2.1249349 v 0.5586222 6.5350011 h 3.316076 c 2.153005,0 3.792017,-1.614585 3.792017,-3.5444858 2.1e-5,-1.929902 -1.638443,-3.5491374 -3.792017,-3.5491374 z m 1.113626,1.1172446 h 2.20245 c 1.61298,0 2.677372,1.122824 2.677356,2.4318929 0,1.3090908 -1.063805,2.4308588 -2.677356,2.4308588 h -2.20245 z m 20.186367,0.528133 h 0.878499 c 1.810504,0 3.470706,0.9574774 4.375959,2.5254267 0.905254,1.567929 0.905254,3.486015 0,5.053955 -0.905234,1.567925 -2.565474,2.529562 -4.375959,2.529562 h -0.878499 z" />
  </g>
</svg>
