<?xml version="1.0" encoding="UTF-8" standalone="no"?>
<!-- Created with Inkscape (http://www.inkscape.org/) -->

<svg
   width="134mm"
   height="50mm"
   viewBox="0 0 134 50"
   version="1.1"
   id="svg7030"
   inkscape:version="1.1.2 (0a00cf5339, 2022-02-04)"
   sodipodi:docname="logo.svg"
   xmlns:inkscape="http://www.inkscape.org/namespaces/inkscape"
   xmlns:sodipodi="http://sodipodi.sourceforge.net/DTD/sodipodi-0.dtd"
   xmlns="http://www.w3.org/2000/svg"
   xmlns:svg="http://www.w3.org/2000/svg">
  <sodipodi:namedview
     id="namedview7032"
     pagecolor="#000000"
     bordercolor="#666666"
     borderopacity="1.0"
     inkscape:pageshadow="2"
     inkscape:pageopacity="0"
     inkscape:pagecheckerboard="0"
     inkscape:document-units="mm"
     showgrid="false"
     inkscape:zoom="1.1996218"
     inkscape:cx="95.029953"
     inkscape:cy="155.04887"
     inkscape:window-width="1920"
     inkscape:window-height="1011"
     inkscape:window-x="0"
     inkscape:window-y="950"
     inkscape:window-maximized="1"
     inkscape:current-layer="layer1" />
  <defs
     id="defs7027" />
  <g
     inkscape:label="Layer 1"
     inkscape:groupmode="layer"
     id="layer1">
    <path
       id="path50175-6"
       style="color:#000000;fill:#ffffff;fill-opacity:1;stroke-width:0.999999;-inkscape-stroke:none"
       d="m 88.877358,0.98092475 c -4.80903,0 -8.76885,3.95982005 -8.76885,8.76884005 0,4.8090192 3.95982,8.7668892 8.76885,8.7668892 4.80902,0 8.76739,-3.95787 8.76739,-8.7668892 0,-4.80903 -3.95837,-8.76884005 -8.76739,-8.76884005 z m 0,5.61412005 c 1.77474,0 3.15281,1.3799799 3.15281,3.15473 0,1.7747392 -1.37807,3.1527892 -3.15281,3.1527892 -1.77476,0 -3.15427,-1.37805 -3.15427,-3.1527892 0,-1.77475 1.37951,-3.15473 3.15427,-3.15473 z M 38.762379,9.5104047 c -1.77943,0 -3.55967,0.45014 -5.15957,1.3505793 -3.19979,1.80087 -5.21758,5.17884 -5.21758,8.843791 v 5.55221 h -6.88635 V 10.052954 h -5.61459 v 36.024571 h 5.61459 v -15.20596 h 6.88635 v 5.55415 c 0,3.66495 2.01778,7.04291 5.21758,8.84379 3.19979,1.80089 7.11934,1.80089 10.31912,0 3.19982,-1.80088 5.21568,-5.17883 5.21568,-8.84379 v -16.72095 c 0,-3.664941 -2.01586,-7.042921 -5.21568,-8.843791 -1.59988,-0.9004392 -3.38011,-1.3505792 -5.15955,-1.3505693 z m 0,6.1774393 c 0.73767,0 1.47553,0.18476 2.13103,0.55368 1.31102,0.737841 2.0706,2.05072 2.0706,3.463241 v 16.72095 c 0,1.41251 -0.75958,2.72538 -2.0706,3.46324 -1.31102,0.73787 -2.95105,0.73787 -4.26207,0 -1.31103,-0.73786 -2.07253,-2.05071 -2.07253,-3.46324 v -16.72095 c 0,-1.412511 0.76151,-2.725391 2.07253,-3.463241 0.65551,-0.36893 1.39338,-0.55368 2.13104,-0.55368 z m 14.66292,0.87911 v 21.444821 h 18.336519 c 3.8258,0 7.37139,-2.046999 9.28431,-5.36023 1.91291,-3.313239 1.91477,-7.40917 0.002,-10.72241 -1.91289,-3.31325 -5.46043,-5.360731 -9.28624,-5.360731 h -6.95018 v 11.382511 h 5.61411 v -5.76792 h 1.33607 c 1.82896,0 3.50863,0.96926 4.42312,2.55319 0.91447,1.58394 0.91447,3.5244 0,5.10831 -0.91449,1.58392 -2.59416,2.55318 -4.42312,2.55318 H 59.040039 V 16.566954 Z m 68.190371,0.002 c -3.8258,0 -7.37139,2.04748 -9.28431,5.360721 -1.91289,3.31324 -1.91291,7.40917 0,10.72241 1.91292,3.31324 5.45851,5.36024 9.28431,5.36024 h 6.61799 v -11.1813 h -5.61461 v 5.5672 h -1.00338 c -1.82895,0 -3.50813,-0.96926 -4.42262,-2.55318 -0.91447,-1.58392 -0.91447,-3.52438 0,-5.10831 0.91449,-1.58393 2.59367,-2.55319 4.42262,-2.55319 h 11.23256 v -5.614581 z m -109.744911,0.77513 c -3.8258097,0 -7.3714097,2.047001 -9.2843097,5.360261 -1.91289999,3.31325 -1.91290999,7.40965 0,10.7229 1.9129,3.31323 5.4585,5.36024 9.2843097,5.36024 v -5.6146 c -1.82897,0 -3.5081497,-0.96926 -4.4226197,-2.55318 -0.91449,-1.58393 -0.91449,-3.5239 0,-5.107829 0.91447,-1.58393 2.5936497,-2.55319 4.4226197,-2.55319 z m 89.947561,4.041101 v 9.48113 l -10.040592,-9.48064 h -5.61459 v 27.6334 h 5.61459 v -19.90463 l 10.040592,9.48838 h 5.61459 v -17.21818 z"
       sodipodi:nodetypes="sssssssssssssccccccccsssssssssssssssssccsscsccccsssscccssssccccssssccscssccssccccccccccccc" />
  </g>
</svg>
